<svg width="61" height="61" viewBox="0 0 61 61" fill="none" xmlns="http://www.w3.org/2000/svg">
<path d="M30.8 7.04999C31.7946 7.04999 32.7484 7.44508 33.4517 8.14834C34.155 8.8516 34.55 9.80543 34.55 10.8C34.55 11.7945 34.155 12.7484 33.4517 13.4516C32.7484 14.1549 31.7946 14.55 30.8 14.55H18.3C17.9685 14.55 17.6506 14.6817 17.4162 14.9161C17.1817 15.1505 17.05 15.4685 17.05 15.8V45.8C17.05 46.1315 17.1817 46.4495 17.4162 46.6839C17.6506 46.9183 17.9685 47.05 18.3 47.05H29.55C30.5446 47.05 31.4984 47.4451 32.2017 48.1483C32.905 48.8516 33.3 49.8054 33.3 50.8C33.3 51.7945 32.905 52.7484 32.2017 53.4516C31.4984 54.1549 30.5446 54.55 29.55 54.55H18.3C15.9794 54.55 13.7538 53.6281 12.1129 51.9872C10.4719 50.3462 9.55005 48.1206 9.55005 45.8V15.8C9.55005 13.4793 10.4719 11.2537 12.1129 9.6128C13.7538 7.97186 15.9794 7.04999 18.3 7.04999H30.8ZM45.95 21.075L53.0225 28.15C53.7248 28.8531 54.1193 29.8062 54.1193 30.8C54.1193 31.7937 53.7248 32.7469 53.0225 33.45L45.9526 40.525C45.2491 41.2285 44.2949 41.6237 43.3 41.6237C42.3052 41.6237 41.351 41.2285 40.6475 40.525C39.9441 39.8215 39.5488 38.8674 39.5488 37.8725C39.5488 36.8776 39.9441 35.9235 40.6475 35.22L41.3176 34.55H30.8C29.8055 34.55 28.8517 34.1549 28.1484 33.4516C27.4451 32.7484 27.05 31.7945 27.05 30.8C27.05 29.8054 27.4451 28.8516 28.1484 28.1483C28.8517 27.4451 29.8055 27.05 30.8 27.05H41.3176L40.6475 26.38C40.2994 26.0317 40.0232 25.6182 39.8349 25.1631C39.6465 24.7081 39.5496 24.2204 39.5497 23.7279C39.5498 23.2354 39.647 22.7477 39.8355 22.2927C40.0241 21.8378 40.3005 21.4244 40.6488 21.0762C40.9971 20.7281 41.4106 20.4519 41.8657 20.2636C42.3207 20.0752 42.8084 19.9783 43.3009 19.9784C43.7934 19.9785 44.2811 20.0757 44.736 20.2642C45.191 20.4528 45.6044 20.7292 45.9526 21.0775L45.95 21.075Z" fill="white"/>
</svg>
