<svg width="35" height="36" viewBox="0 0 35 36" fill="none" xmlns="http://www.w3.org/2000/svg">
<path d="M17.4998 3.41669C15.5847 3.41669 13.6884 3.7939 11.919 4.52678C10.1497 5.25966 8.54205 6.33386 7.18786 7.68805C4.45296 10.423 2.9165 14.1323 2.9165 18C2.9165 24.4459 7.10192 29.9146 12.8915 31.8542C13.6207 31.9709 13.854 31.5188 13.854 31.125V28.6604C9.81442 29.5354 8.954 26.7063 8.954 26.7063C8.28317 25.0146 7.33525 24.5625 7.33525 24.5625C6.00817 23.6584 7.43734 23.6875 7.43734 23.6875C8.89567 23.7896 9.66859 25.1896 9.66859 25.1896C10.9373 27.4063 13.0811 26.75 13.9123 26.4C14.0436 25.4521 14.4228 24.8104 14.8311 24.4459C11.5936 24.0813 8.19567 22.8271 8.19567 17.2709C8.19567 15.6521 8.74984 14.3542 9.69775 13.3188C9.55192 12.9542 9.0415 11.4375 9.84359 9.46877C9.84359 9.46877 11.0686 9.07502 13.854 10.9563C15.0061 10.6354 16.2603 10.475 17.4998 10.475C18.7394 10.475 19.9936 10.6354 21.1457 10.9563C23.9311 9.07502 25.1561 9.46877 25.1561 9.46877C25.9582 11.4375 25.4478 12.9542 25.3019 13.3188C26.2498 14.3542 26.804 15.6521 26.804 17.2709C26.804 22.8417 23.3915 24.0667 20.1394 24.4313C20.6644 24.8834 21.1457 25.7729 21.1457 27.1292V31.125C21.1457 31.5188 21.379 31.9854 22.1228 31.8542C27.9123 29.9 32.0832 24.4459 32.0832 18C32.0832 16.0849 31.706 14.1886 30.9731 12.4192C30.2402 10.6499 29.166 9.04223 27.8118 7.68805C26.4576 6.33386 24.85 5.25966 23.0806 4.52678C21.3113 3.7939 19.4149 3.41669 17.4998 3.41669Z" fill="#7C7C7C"/>
</svg>
