<svg width="80" height="80" viewBox="0 0 80 80" fill="none" xmlns="http://www.w3.org/2000/svg">
<path d="M20.9075 32.4763C20.9075 35.3738 23.4525 37.7188 26.5925 37.7188C26.8891 37.7188 27.18 37.6983 27.465 37.6575C27.1075 38.4762 26.69 39.4937 26.5925 40.0037C26.1737 42.155 28.5137 43.9613 30.8825 43.9613C30.8825 43.9613 32.0287 44.0562 32.275 43.8312C33.1612 43.0137 32.275 39.34 32.275 39.34C32.275 38.72 32.82 38.2188 33.4925 38.2188C34.1625 38.2188 34.705 38.72 34.705 39.34C34.705 39.34 33.8212 43.1437 34.705 43.9613C35.4275 44.6262 38.065 44.6262 38.7862 43.9613C39.6725 43.1437 38.7862 39.34 38.7862 39.34C38.7862 38.72 39.3325 38.2188 40.0012 38.2188C40.67 38.2188 41.2162 38.72 41.2162 39.34C41.2162 39.34 40.33 43.1437 41.2162 43.9613C41.9362 44.6262 44.575 44.6262 45.295 43.9613C46.1812 43.1437 45.295 39.34 45.295 39.34C45.295 38.72 45.84 38.2188 46.51 38.2188C47.1825 38.2188 47.725 38.72 47.725 39.34C47.725 39.34 46.8387 43.0125 47.725 43.8312C47.9712 44.0575 49.12 43.9613 49.12 43.9613C51.49 43.9613 53.8275 42.155 53.4112 40.0037C53.3137 39.4937 52.8962 38.4762 52.5362 37.6575C52.8221 37.6992 53.1137 37.7196 53.4112 37.7188C56.5512 37.7188 59.0962 35.3738 59.0962 32.4763C59.0962 30.7888 58.2337 29.29 56.89 28.3313C58.334 25.8319 59.0948 22.9965 59.0962 20.11C59.0925 10.3862 50.5462 2.5 40 2.5C29.4537 2.5 20.9075 10.3862 20.9075 20.11C20.9075 23.0812 21.7062 25.8775 23.1137 28.3313C21.7712 29.2913 20.9075 30.79 20.9075 32.4763ZM53.6512 21.5363C58.2525 21.79 52.69 27.8687 50.5437 29.32C48.3987 30.7712 43.245 28.0712 43.5425 26.3112C43.9837 23.7237 50.8162 21.38 53.6512 21.5363ZM38.2712 32.1263C38.9475 30.9438 39.2887 29.8713 40.12 29.8713C40.9512 29.8713 41.2912 30.9425 41.97 32.1263C42.5537 33.1438 44.2162 33.895 43.2137 34.8175C42.12 35.8275 38.1162 35.8275 37.0225 34.8175C35.9987 33.8738 37.685 33.145 38.2712 32.1263ZM26.5925 21.5363C29.4237 21.38 36.26 23.7238 36.7 26.31C36.9987 28.07 31.8437 30.77 29.6987 29.3188C27.5537 27.87 21.99 21.7913 26.5925 21.5363Z" fill="white" fill-opacity="0.5"/>
<path d="M72.1049 62.9062C69.4811 61.5075 67.7386 62.5375 67.7386 62.5375C65.9361 63.6 62.9524 63.6637 61.0986 62.6762L46.7986 55.0625L61.0974 47.4475C62.9499 46.4637 65.9361 46.5262 67.7374 47.5875C67.7374 47.5875 69.4811 48.615 72.1036 47.2187C74.8711 45.7437 75.8224 42.4787 74.2224 39.9212L73.6924 39.0787C72.8186 38.4687 71.9911 37.145 71.8536 36.1375L71.3249 35.295C69.7262 32.74 66.1849 31.8662 63.4136 33.3412C60.7899 34.7362 60.8874 36.6437 60.8874 36.6437C60.9824 38.615 59.5499 41.0325 57.6986 42.0162L39.9999 51.4412L22.2986 42.0162C20.4486 41.0325 19.0136 38.615 19.1111 36.6437C19.1111 36.6437 19.2074 34.7375 16.5849 33.3412C13.8136 31.8662 10.2711 32.7412 8.6724 35.295L8.1449 36.1375C8.0074 37.145 7.18115 38.4675 6.30365 39.0787L5.7774 39.9212C4.1774 42.4787 5.1274 45.7437 7.8974 47.2187C10.5186 48.6162 12.2624 47.5875 12.2624 47.5875C14.0624 46.525 17.0499 46.4637 18.8999 47.4475L33.2011 55.0625L18.8999 62.6775C17.0499 63.665 14.0624 63.6 12.2624 62.5387C12.2624 62.5387 10.5186 61.5087 7.8974 62.9075C5.12865 64.3812 4.1774 67.65 5.7774 70.2037L6.30365 71.0462C7.1799 71.6575 8.0074 72.9813 8.1449 73.9888L8.6724 74.8313C10.2699 77.385 13.8136 78.2612 16.5849 76.785C19.2086 75.3888 19.1111 73.4812 19.1111 73.4812C19.0136 71.5137 20.4486 69.0937 22.2986 68.11L39.9999 58.6837L57.6999 68.1087C59.5499 69.0925 60.9836 71.5125 60.8886 73.48C60.8886 73.48 60.7924 75.3862 63.4149 76.7837C66.1861 78.26 69.7274 77.3825 71.3261 74.83L71.8549 73.9875C71.9911 72.98 72.8186 71.6575 73.6936 71.045L74.2236 70.2025C75.8224 67.6487 74.8711 64.38 72.1049 62.9062Z" fill="white" fill-opacity="0.5"/>
</svg>
