<svg width="35" height="36" viewBox="0 0 35 36" fill="none" xmlns="http://www.w3.org/2000/svg">
<path d="M32.0835 9.24998V6.33331H30.6252V4.87498H29.1668V3.41665H27.7085V1.95831H7.29183V3.41665H5.8335V4.87498H4.37516V6.33331H2.91683V9.24998H1.4585V32.5833H2.91683V34.0416H32.0835V32.5833H33.5418V9.24998H32.0835ZM18.9585 4.87498H26.2502V6.33331H27.7085V7.79165H29.1668V10.7083H18.9585V4.87498ZM5.8335 7.79165H7.29183V6.33331H8.75016V4.87498H16.0418V10.7083H5.8335V7.79165ZM4.37516 31.125V13.625H16.0418V16.5416H13.1252V22.375H14.5835V23.8333H18.9585V25.2916H13.1252V28.2083H16.0418V31.125H4.37516ZM30.6252 31.125H18.9585V28.2083H21.8752V22.375H20.4168V20.9166H16.0418V19.4583H21.8752V16.5416H18.9585V13.625H30.6252V31.125Z" fill="#7C7C7C"/>
</svg>
